<svg width="19" height="20" viewBox="0 0 19 20" fill="none" xmlns="http://www.w3.org/2000/svg">
<path d="M19 3.95857V13.6774C18.988 13.7479 18.9697 13.818 18.9649 13.8889C18.9251 14.4614 18.7329 14.9812 18.3921 15.4409C17.7359 16.3254 16.8421 16.7431 15.7414 16.7423C13.7066 16.7411 11.6715 16.7522 9.63674 16.7332C9.25164 16.7296 9.02719 16.8298 8.79518 17.1592C7.94763 18.3613 6.75644 19.0043 5.27543 19.0866C4.85405 19.11 4.51679 18.8126 4.47612 18.3945C4.44742 18.1007 4.46058 17.803 4.45779 17.5072C4.45539 17.2594 4.45739 17.0115 4.45739 16.7423C4.02126 16.7423 3.61223 16.7431 3.20281 16.7423C2.21255 16.7395 1.38294 16.3796 0.737917 15.6286C0.216074 15.0204 -0.000795124 14.3062 2.18989e-06 13.5139C0.00319145 10.4466 0.000799504 7.37899 0.00199548 4.31173C0.00199548 4.11456 0.00956996 3.91699 0.0231243 3.72022C0.125978 2.21688 1.4858 0.923377 3.00388 0.92021C7.30579 0.911499 11.6073 0.911499 15.9092 0.919418C17.3272 0.921793 18.5415 1.89301 18.8812 3.26371C18.9374 3.49137 18.9613 3.72655 19 3.95857ZM5.61549 17.9119C6.76043 17.6811 7.60279 17.0856 8.11826 16.0799C8.30523 15.7153 8.5516 15.5834 8.94906 15.5854C11.2031 15.5961 13.4571 15.5898 15.7107 15.5913C16.0384 15.5913 16.3605 15.5656 16.6591 15.4199C17.454 15.0323 17.8256 14.3917 17.8244 13.5171C17.8208 10.39 17.8232 7.26299 17.8228 4.13594C17.8228 4.05715 17.8192 3.97797 17.8152 3.89918C17.7602 2.87808 16.9218 2.06167 15.8961 2.06048C11.6268 2.05534 7.35762 2.05534 3.0884 2.06603C2.82608 2.06682 2.54264 2.13333 2.30544 2.24499C1.51291 2.61716 1.15651 3.26767 1.1577 4.13357C1.16209 7.26061 1.1593 10.3877 1.1597 13.5147C1.1597 13.6002 1.16368 13.6857 1.16807 13.7713C1.22069 14.7365 2.018 15.5403 2.99073 15.5775C3.63934 15.602 4.28955 15.5854 4.93936 15.5913C5.39025 15.5957 5.6107 15.8154 5.61389 16.2605C5.61668 16.675 5.61469 17.0899 5.61469 17.5049C5.61469 17.6343 5.61469 17.7634 5.61469 17.9115L5.61549 17.9119Z" fill="#808080"/>
<path d="M9.50927 4.90445C10.6247 4.90841 11.5779 5.6381 11.8598 6.70553C12.1404 7.76939 11.6664 8.89699 10.6969 9.44337C10.4286 9.59462 10.1954 9.76724 10.1081 10.0749C10.0762 10.1877 10.0762 10.3089 10.0518 10.4245C9.96334 10.8465 9.47698 11.0251 9.13692 10.7606C8.95872 10.6224 8.9057 10.432 8.92125 10.2162C8.97706 9.43585 9.36894 8.87165 10.0487 8.49592C10.5852 8.19937 10.8356 7.75711 10.7702 7.14461C10.7044 6.52538 10.1535 6.04947 9.49731 6.04789C8.85108 6.04631 8.2818 6.53171 8.21483 7.14065C8.20406 7.23884 8.19928 7.33783 8.18134 7.43443C8.13071 7.70604 7.89311 7.90321 7.62242 7.904C7.34416 7.9048 7.08424 7.70089 7.06151 7.4182C7.00889 6.76769 7.23333 6.20072 7.66388 5.71967C8.15184 5.17487 8.77494 4.9096 9.50887 4.90405L9.50927 4.90445Z" fill="#808080"/>
<path d="M10.0642 12.1824C10.0602 12.4924 9.80306 12.7482 9.49529 12.749C9.17836 12.7498 8.91525 12.4849 8.91923 12.1689C8.92322 11.8538 9.17119 11.6091 9.48812 11.6079C9.81302 11.6067 10.0686 11.8617 10.0646 12.1824H10.0642Z" fill="#808080"/>
</svg>
