<svg width="16" height="17" viewBox="0 0 16 17" fill="none" xmlns="http://www.w3.org/2000/svg">
<g clip-path="url(#clip0_5_798)">
<path d="M8.46588 16.5005H7.52815C7.26036 16.467 6.99101 16.4425 6.7251 16.3981C5.05384 16.1189 3.59713 15.4001 2.39819 14.2027C0.600404 12.4065 -0.191061 10.2233 0.0388302 7.69546C0.193239 5.99845 0.857544 4.49897 1.99259 3.22457C3.50004 1.53225 5.39711 0.620665 7.66095 0.510473C9.23949 0.433464 10.7238 0.801604 12.0749 1.62554C14.1521 2.89211 15.4268 4.72655 15.8753 7.12353C15.9314 7.42343 15.9593 7.72865 16 8.03167V8.96924C15.9871 9.08162 15.9743 9.19401 15.9618 9.30639C15.7701 11.0278 15.1124 12.5467 13.9516 13.8343C12.7192 15.2013 11.1923 16.0547 9.37542 16.3762C9.07444 16.4294 8.76906 16.4598 8.46588 16.5005ZM6.75266 9.8179C6.71915 9.78942 6.69127 9.76719 6.66496 9.74308C6.26939 9.38089 5.87444 9.01776 5.47792 8.65619C5.16628 8.37226 4.86498 8.07456 4.53643 7.81129C4.06193 7.43157 3.36944 7.73084 3.2974 8.33313C3.26075 8.63804 3.38416 8.87752 3.60622 9.0788C4.46627 9.85922 5.32445 10.6418 6.18294 11.4241C6.60138 11.8051 7.0217 11.7988 7.42166 11.4022C9.07819 9.75905 10.7344 8.11557 12.3906 6.47177C12.4348 6.42795 12.4786 6.38287 12.5184 6.33497C12.8401 5.94742 12.7361 5.37612 12.2992 5.12443C11.9556 4.92659 11.587 4.99201 11.2672 5.31163C9.8042 6.77292 8.34217 8.23515 6.87982 9.69675C6.84004 9.73651 6.7987 9.77408 6.75297 9.8179H6.75266Z" fill="#01A12E"/>
</g>
<defs>
<clipPath id="clip0_5_798">
<rect width="16" height="16" fill="white" transform="translate(0 0.5)"/>
</clipPath>
</defs>
</svg>
