<svg width="13" height="10" viewBox="0 0 13 10" fill="none" xmlns="http://www.w3.org/2000/svg">
<path d="M4.78283 6.92993C5.44688 6.26179 6.061 5.64166 6.67771 5.02412C7.98117 3.71898 9.28398 2.41385 10.59 1.11195C11.1471 0.557337 11.9655 0.644259 12.3111 1.2871C12.54 1.71263 12.4635 2.17513 12.0854 2.55526C11.1199 3.52633 10.1497 4.4935 9.18087 5.46197C7.99868 6.64386 6.81779 7.82705 5.6343 9.00829C5.08503 9.55707 4.51112 9.56225 3.97028 9.02256C2.77187 7.8264 1.57736 6.6257 0.376361 5.43278C0.0579534 5.11688 -0.0821201 4.75492 0.0488743 4.32031C0.278439 3.56006 1.20189 3.33561 1.79201 3.9071C2.5047 4.59729 3.20052 5.305 3.89959 6.00881C4.18752 6.29877 4.46572 6.5991 4.78218 6.92993H4.78283Z" fill="#B5B5B5"/>
</svg>
