<svg width="17" height="9" viewBox="0 0 17 9" fill="none" xmlns="http://www.w3.org/2000/svg">
<g clip-path="url(#clip0_5_1165)">
<path d="M12.683 8.49985C12.4162 8.38191 12.3034 8.24343 12.3593 8.04036C12.3906 7.92673 12.4744 7.81641 12.5606 7.72995C13.3312 6.95608 14.1074 6.18784 14.8823 5.41827C15.1328 5.16981 15.3847 4.92268 15.6768 4.63446H15.4316C10.557 4.63446 5.68275 4.63446 0.808163 4.63446C0.681067 4.63446 0.553637 4.63844 0.426541 4.63347C0.171349 4.62287 -0.000663503 4.46286 1.92384e-06 4.24355C0.000667351 4.03153 0.164695 3.87517 0.411901 3.85463C0.466799 3.84999 0.522362 3.85297 0.577926 3.85297C5.52438 3.85297 10.4708 3.85297 15.417 3.85297H15.6598C15.589 3.7781 15.5464 3.7304 15.5011 3.68567C14.508 2.69746 13.5148 1.70959 12.5217 0.721044C12.3254 0.525919 12.2934 0.324832 12.4272 0.151241C12.5569 -0.0170495 12.7849 -0.0501776 12.9555 0.0773655C13.0084 0.116788 13.057 0.162505 13.1039 0.208884C14.337 1.43297 15.57 2.65705 16.8007 3.88345C16.8776 3.95998 16.9341 4.05638 17 4.1435V4.34161C16.9218 4.44033 16.8529 4.548 16.7644 4.63645C15.5574 5.84032 14.3486 7.04221 13.1362 8.24078C13.0334 8.34216 12.9013 8.41404 12.7829 8.49951H12.6834L12.683 8.49985Z" fill="#20C6BA"/>
</g>
<defs>
<clipPath id="clip0_5_1165">
<rect width="17" height="8.5" fill="white"/>
</clipPath>
</defs>
</svg>
