<svg width="94" height="94" viewBox="0 0 94 94" fill="none" xmlns="http://www.w3.org/2000/svg">
<g filter="url(#filter0_d_5_890)">
<circle cx="27" cy="27" r="27" transform="matrix(-1 0 0 1 74 20)" fill="white"/>
</g>
<g clip-path="url(#clip0_5_890)">
<path d="M49.6358 55.9999C49.1806 55.7918 48.9882 55.5474 49.0836 55.1891C49.1369 54.9885 49.28 54.7939 49.427 54.6413C50.7414 53.2756 52.0656 51.9199 53.3875 50.5618C53.8148 50.1234 54.2445 49.6873 54.7428 49.1786H54.3245C46.009 49.1786 45.2127 49.1786 36.8972 49.1786C36.6804 49.1786 36.463 49.1857 36.2462 49.1769C35.8109 49.1582 35.5174 48.8758 35.5186 48.4888C35.5197 48.1147 35.7995 47.8387 36.2212 47.8025C36.3149 47.7943 36.4096 47.7995 36.5044 47.7995C44.9425 47.7995 45.862 47.7995 54.2995 47.7995H54.7139C54.593 47.6674 54.5203 47.5832 54.4431 47.5043C52.7489 45.7604 51.0547 44.0171 49.3605 42.2726C49.0257 41.9283 48.9712 41.5734 49.1994 41.2671C49.4207 40.9701 49.8095 40.9116 50.1007 41.1367C50.1909 41.2063 50.2738 41.287 50.3538 41.3688C52.4572 43.529 54.5606 45.6891 56.6601 47.8533C56.7912 47.9884 56.8877 48.1585 57 48.3123V48.6619C56.8667 48.8361 56.7492 49.0261 56.5982 49.1822C54.5391 51.3066 52.4771 53.4276 50.4088 55.5427C50.2335 55.7216 50.0081 55.8485 49.8061 55.9993L49.6358 55.9999Z" fill="#20C6BA"/>
</g>
<defs>
<filter id="filter0_d_5_890" x="0" y="0" width="94" height="94" filterUnits="userSpaceOnUse" color-interpolation-filters="sRGB">
<feFlood flood-opacity="0" result="BackgroundImageFix"/>
<feColorMatrix in="SourceAlpha" type="matrix" values="0 0 0 0 0 0 0 0 0 0 0 0 0 0 0 0 0 0 127 0" result="hardAlpha"/>
<feOffset/>
<feGaussianBlur stdDeviation="10"/>
<feComposite in2="hardAlpha" operator="out"/>
<feColorMatrix type="matrix" values="0 0 0 0 0 0 0 0 0 0 0 0 0 0 0 0 0 0 0.1 0"/>
<feBlend mode="normal" in2="BackgroundImageFix" result="effect1_dropShadow_5_890"/>
<feBlend mode="normal" in="SourceGraphic" in2="effect1_dropShadow_5_890" result="shape"/>
</filter>
<clipPath id="clip0_5_890">
<rect width="29" height="15" fill="white" transform="translate(28 41)"/>
</clipPath>
</defs>
</svg>
